<mxfile host="app.diagrams.net" agent="Mozilla/5.0 (Windows NT 10.0; Win64; x64) AppleWebKit/537.36 (KHTML, like Gecko) Chrome/128.0.0.0 Safari/537.36 OPR/114.0.0.0" version="24.7.14">
  <diagram name="Page-1" id="jJ7n3A1it99_hdllu_8M">
    <mxGraphModel dx="3612" dy="1045" grid="1" gridSize="10" guides="1" tooltips="1" connect="1" arrows="1" fold="1" page="1" pageScale="1" pageWidth="1654" pageHeight="1169" math="0" shadow="0">
      <root>
        <mxCell id="0" />
        <mxCell id="1" parent="0" />
        <mxCell id="_tZKHd5Szc6mgcDDZj10-1" value="" style="rounded=0;whiteSpace=wrap;html=1;fillColor=default;strokeColor=none;" parent="1" vertex="1">
          <mxGeometry x="-1567" y="395" width="1480" height="380" as="geometry" />
        </mxCell>
        <mxCell id="_tZKHd5Szc6mgcDDZj10-7" value="&lt;div style=&quot;&quot;&gt;&lt;font color=&quot;#63b32e&quot; style=&quot;font-size: 89px;&quot; data-font-src=&quot;https://fonts.googleapis.com/css?family=Gochi+Hand&quot; face=&quot;Gochi Hand&quot;&gt;Downloads Organizer Using&lt;/font&gt;&lt;/div&gt;" style="text;html=1;align=center;verticalAlign=middle;whiteSpace=wrap;rounded=0;" parent="1" vertex="1">
          <mxGeometry x="-1557" y="406" width="1470" height="124" as="geometry" />
        </mxCell>
        <mxCell id="au0dWshhhtcf-c0XHziP-4" value="" style="group" vertex="1" connectable="0" parent="1">
          <mxGeometry x="-1310" y="505" width="928" height="270" as="geometry" />
        </mxCell>
        <mxCell id="-DI6Injc_pOPqrk4mMJv-5" value="&lt;div style=&quot;&quot;&gt;&lt;font color=&quot;#5782d9&quot; style=&quot;font-size: 89px;&quot; data-font-src=&quot;https://fonts.googleapis.com/css?family=Gochi+Hand&quot; face=&quot;Gochi Hand&quot;&gt;CLOJURE&lt;/font&gt;&lt;/div&gt;" style="text;html=1;align=center;verticalAlign=middle;whiteSpace=wrap;rounded=0;" parent="au0dWshhhtcf-c0XHziP-4" vertex="1">
          <mxGeometry y="146" width="470" height="124" as="geometry" />
        </mxCell>
        <mxCell id="Lys92e-GV2qG65tcctpN-1" value="" style="shape=image;verticalLabelPosition=bottom;labelBackgroundColor=default;verticalAlign=top;aspect=fixed;imageAspect=0;image=https://upload.wikimedia.org/wikipedia/commons/thumb/5/5d/Clojure_logo.svg/1024px-Clojure_logo.svg.png;" parent="au0dWshhhtcf-c0XHziP-4" vertex="1">
          <mxGeometry x="160" y="5" width="150" height="150" as="geometry" />
        </mxCell>
        <mxCell id="au0dWshhhtcf-c0XHziP-2" value="" style="shape=image;verticalLabelPosition=bottom;labelBackgroundColor=default;verticalAlign=top;aspect=fixed;imageAspect=0;image=data:image/png,iVBORw0KGgoAAAANSUhEUgAAARgAAAEYCAYAAACHjumMAABi40lEQVR4nOy9C5hdVXk3/nv3OTNzJpkkkwvkQiDDRQ1ISAIBwq1JCgoI/YTP+icKltDPFhA0QapotQU/64d8VYFH/YQ+KkFA8amt4dFWLLQJVUtQIAnEiqAkVChBLpmQy0xm5uz3/+zLWutda+9z5sx95pz14wlz9m3ttdde693v/Q3g4eHhMULwBMbDw2PE4AmMh4fHiMETGA8PjxGDJzAeHh4jBk9gPDw8RgyewHh4eIwYPIHx8PAYMXgC4+HhMWLwBMbDw2PE4AmMh4fHiMETGA8PjxGDJzAeHh4jBk9gPAaM784+7D0vHf6Wu9ZNm37qWPfFY3yDxroDHhMLv1vwlo0EWhlvMEf/X/+3b7563e2dnZ1j3TeP8QdPYDz6xdr29tLpLVMuPb1U+jSBOpg5njhsTnk5KIf3f2HPG1+9dd/u345lXz3GFzyB8aiIte2z2s9oarn+tNbJ1wLcnncOJXwMpb+7/qO7686f9ez7jOdoPOAJjEcl/NeCo88NOPhRRDyICMwhCKSJCWI2hkixMpLQRAjL5TULXnr+7rF8Bo+xh1fyelhYN3n62353+DF3EQcbFMHgWNdCCR3hVDCKiAuMnJTSGN1OUCjc8bsj3vqjddOmrxiL5/AYH/AcjIfGdVOnL/zotJlPMlEr9OTQxEVMFrMP1SYRJXwNA7d98fevfvL27s7uEX8Ij3GFwlh3wGPssbylNOtn84/42GmltjsImKYIg9bkir/EyS+OfgtVb/JL/1/qZSLBavnpkyddAGAXE7/wUl9f31g/s8fowHMwDY4dHR3thXJxIxEtQZaegAWfQomsBCYkypdED5MeTDdjzoYjQpRwMNH1DBbX3HX4737zp2P5zB6jB8/BNCjWltpL18+YufaIQss/gtChyUqWwhgkLAulv822PEfKUqYdKWMtXTdl+tuI6PHNB7v2jOIje4wBPAfTgFjbPqv9L6a2b2TGksRCxIbbUKZnFoISZbS4xIZ0pL9S3sUiUEkL5h6GYEX7vrTn9ZW37nnjkbEbCY+RhicwDYRTi6Xi6ZMmvee6aTNuArAQjupWw+VcDLIXOIxP/kmVwN1hme9Y/frLX9x8sOvFgT+Rx3iHJzANguUtrYfdf8i8+wOiM20pSLMvKU1hS7JRkLakWMei+JtU2+LSI5JXkDF1Z6WuWMvzMpfDOy95bdcXH+vp2jc6I+IxGvAEpgGwo72jPZhS3EjgxdFy5zxGRNGLXPRrkNZHjW430Qdz4qenCYzLGpFt7t50xO9+s2qQj+kxDuGVvHWO78yae8kRk1seBqMjWc/kyDUpZZFWH2F0tlCz7KO1vGTLT9UujklNx9rJ049h8MbHerq9z0wdwHMwdYwX5h91I4hu0js0EXFN0DYoknjSuABlZhbyDRtC5XI2SkksFMdWAIHjIWPOYcfS1HnbnjdW3frm7q0jMzIeowXPwdQh1ra1t3935ry7ENC1JNZ+un7ZMSBLd38YrxaLYyHnWA7BqcDh5LXvHkfm6tLyUut5BNrFzL99qewd8yYqPAdTZ7hu6owF66bN2MrM7STeLjvMhlKTUIbLMOcT5VAhOF54mkCQ2IS5mWxbBUiqi9k+U0dTkukbl8s3dfz3js8M5xh5jB48B1NHWN7SuuALMw55GMC8ZI8RWfIVtamzSy5voSxFZo+yOInziSR3o87TdIVFIEHq/MKopDQmLSORuZaITl07dcYxjx3s2vpiuc875k0weAJTBzi1uVT66czDr3nv1CnrARxRUUlrgVyykBFiiDLBSFTJQcZuBxbHQxYNsokLadc81/1X/24i0JI/njzlIgA7uYzfvhT2hbWMi8fYw4tIdYAd8468kYIgVeZmPVJcv38juJCRlRJfXTK73JiBFCqdXdKSIBpKtUvWUSMGKQkoiUpSMhjFkhKTrf5NzzN9Nr465fATR76845YRGUiPYYfnYCYwTm0ptf90bsfNBKwFoUke02RBMAO2ysM5l6VlqMp3x8QjuV54mXaz11LeccrpE9nNCpIW0JmnNrU8/g9d+3xqzgkAz8FMYOw8/KjvgykSHVxtRyXXOE6tSZQRf6LtkPOVKdCnpPHUafS0bZXKgkjrdTnkiDio/DBaL2QZq2Ennon2hYqtEuSRGV1A4fQjX3rOm7HHOXxGuwmI5S2lBTsPO2ojh7iIY2sMa199VlIMJ7lblA8dp261LHQhnP6f04NM5lyk7ejrE3cVShQqlgeNDhOwrlViVvQjVDk12eh4Wd0/sRxZ94L2/aPkPNVH3X4rqLzlO4fMvX50RtxjsPAczARERFxAWOk6tLBwdkllDNY5deNjbDnapatdnaPc3RKk1IRhhSSlx9J7cHQS2aISHLlG3UPwTICjXYGO3U5aVTcmadp2QrnNg9905IvPezP2OIXXwUwgnNpcettP5x7xvYi4ZA7mKWWVIEPyOJTCNVmkiaVZrWgjohA5ZiabcqmTKveW5WEy+mDOE+QIWqnrkjNpuRLGJrWPaOXy5hL/w4F9Pu3DOITnYCYQdhx25JMgWmot0kpKF7a86RxPO5cYOboY23CT07bVpgkdkBZn63asTUfs+sIQVegrOfus9oxLTdpUQLhpgedkxh08BzNB8J1Zc780v1i8ONmylJ6OklXIR3n0xnZIoTyyo/6fjQcAHBaCMrdgIM/FDvZf5HW+gmE884ycGYP4fiuXt7TCczLjC56DGeeIxKJvz5p7PxGW5B2XL1DwExmpKOv+ZvZXc50jp6U8IsA57fS3rftE0rJk65PEfSxiWLmv8QWbVr/28prHerpf6Od0j1GAJzDjHDvmdWwB0ZKK7nOOiJGsRGYEQWwjdqOM8uKb8xavWvzsJImpeL5Q+FaLoXbbto5VMHhLQiMFN1MUjhOLmZbD8MhR/73D55UZB/Ai0jjFqc2lBT+ZPX8DQMszbAoZ44+8hgwLQ0KPIoulQYYnGnaBXadc0ybs37r4mjg/UdESZWUsfZ5bWEk+D1UWoDKg3OsAWK0QOk5tbsU/dHlxaazhOZhxiufnHbmRCCuYBZGoZLSpfowtD1oWWbhdz1rW0QLZbC4yd4uiNfmeubaYlsPB6H5I6xIqcDBJN7Mla/sDMwpUWLPgpd/68rVjCO9oN86wvKV02PPzOjYCvDI2vgBZOSXxTNPOaUZty/qvuoRTiUk7vQEiF0L2/FTMShzcWJdCUu4s5map4wysE9Q5ycXK2c4qOWtoC0nrlk59p/sqnoHN9RbB08fF8ChPPRDKXF5/34w5lw/9rXgMFp6DGWfYMa/j20z0Pne/++HOz+KiztW/5PmW9oLdfTBciryXy/CoxRwkAYnqLkYXYnm3UKbzOlbSNnMbgiWVvHmMltArEfRJMomMfQ5R18EyH3fsrp07B/AaPIYJnoMZJzi5uVT6zbyOm0PgvVBfZY4hvuQs/1GF/bCd9jUxMlxPzj7JDaiF7RIVQwBiwzWxcMZziYvVr5SLElyICRuICItDKDXhyns+IVZp7gyQoQeQ7TFza3OBtqxvn3P2ML8yjxrgOZhxgmfndtxYDOgmtaoqcSca1coAkPBeybEhu0ldMpYmYTpW53OayIFyOIiMNUheB1FWQHApeee4x9xzdCG3KtxbXtbf9NCuNw/g2KWdOzsrjKjHCMBzMOMAH5o0bXGBcIP+QtcAqkRcILkSte0choqFRIZ7gOQuxPnKKsW2w5vU0ZBwgbOIpOFiwkyn5TnuM7jnZPQweY/u9E/rhIA5Uydh46nNpQWVrvUYfngCM8b4yJT2Fde3T/8hA63xDpfIVCAkuXuFojbvXLOIKy9mgLNnKPEm56amLgmM8KSUxNmzKf8ZbMGOVQoqfRbb19jExxxVyuHME2hl0OJvz5zz8CnNpfbsk3iMBDyBGUN8pK194dop7ZsAzHdUrWqxcBoCmE9mhBWHJWlIo6fTdpR1hskoQCGvscmLExCg9K9EVv+SVL6KGJJxvVHeOLGRKONnbMGQEPtMIuniQtqNRkt7ZBVrEx58pMXD1DFG91s/NeGYe2fOuSFvOD2GH57AjBGuaWtv//CU9i+zVE4KMzBrp1ggjLaMMpYtcULrNRT3IkIGFLlJ0zZwmrBSnUDCoiMIUirSGAVrqEQN1T+lZBYKWGE6j/PFkOYm1H8E61khFM5SOa3zv7DuU+Kpa5uwSYhyVnts8tyELMZNiHQBYd0vZy24ctRedgPDe/KOEe6fNftREJ1uFzCzFbIqh4FRcupUdOrrLD7ehvNQlUHSC9QXXgYV2IpTCVLKW1PT1VQvEbyUuR9nHOaInD4JdSvnuAdTyrWw3mTtmyvOt/qvnlEXHyDRDqt9yRiRfS8AxWIBFwK0+bGebp96cwThCcwY4L6Zsz97WKH4/7n7KfPDcn93F6daxWaL3MsrtFPxNHFWxthT8apaWqx8PL9QAVU4PbeFKvuy8p7A8ubSYmL6x8d6u/dX67bH4OHN1KOMZw/rWBIwb3ErIlIsCpkvONvHjLnVJTRaGeF481JGN2q/a9W2DDp0KtHbelJI7xnjH+Oel4PMzfvrmwtyghes+xvTdaoAqhY4oe8nnnfn3+7ec+yd3Z2+FvYIwOtgRhHXtk1bEYS8UXrHK3oQ2jTDeM4n/xELpYr+K80lsW5ClAvK4UDU6WwZnFhYfsTVzu2si+KfofKzyTUvyby95B5x+saObchVPNt6GaVvCfWxxO0PxIKnyyqv5dhK0zs6/mBS882ZB/AYFngOZpRwanPLYffNnLMZ4MM48cdPLSLyLMWkZNMsuJ/9bM4UV6oxRmNdZ4idL7/2W9GescqOlDkDTviyoW2kbU/qSpV9l8UzabUOs1MnwCVD0pFOsmkUfQ05TOxTmfvDGgmbQTKpHKhCFcsI4R2Xvf7Kusd6eg728yo9BgDPwYwSvjVzzrUMzFfcSWy4ydU0qCgcqUS1lrrFbLAw4yY7EnsNOV/txLSjEs6lxY0sxkVGMFG6GB1tLBnOREYvZogLp/nDWbIrQtWsu8VaKFQee4qdkSybGoswJZLKJgXbmCbGTxjgOU0lgQqmbf07uOqU5tbVtbxLj9rhlbyjgF8eMvuSIhU+D6DoVJQ3U52R1RwodYNeZWRrRVkKBEZhQ3pRKVTQmRLsctDW+TbHQmxzM/kOMw47RU7OFot5IMpol0j833puSFqk2iJbD+XIdFnGxhlr61nin6e2lJYB/P2f9xz04QTDBM/BjDA+0jbt1Jam0v0ASsYXDfoPWeEyYnUIgqPigDIetQSbT1FrLE0iZb7y4haUx0loNYfVDymQsVyQpoeKqVEFDBQz5HBn4nm0DjrNB0EWGZUPlj43JGGwJSN5TG6SuKvxO5Rj5GqYkvMZ8z8ypX3L2ra2afAYFngOZoRxz4xD1jPTUXrOk5zeolQI1D6x9inHmlOBcanwcba+8hZdyqp0spmmyF6KFhkU3iUMwOZnsiEBNg9lnpLdQ2T3FYL25ClR8miNMG4pdRA5mhfL7M92W6UQVPx+1/6H4DFkeAIzgnhu7hG3Ang/USCWlPm8kswkSVpUsfYx2x5yiXqYSWeoFA5nDCd1CvStTJMWIWJdrF4SE0o9/VluwyxSK9UdkU0QZR9TFssirobuWY9mnic5hTLl3nSpEtNhqlRZJbmDJJRkjQPr0IZAtKOG4PBi8XSEdOfPe7v3DXkSNDi8iDRC+NaMWZeAeR0g85rIsD6b42e2v9xSg8mCi1DRSdLMHP0OlcAkyq/KtLlqrx1kTVaxWKnJYZurssvDCrWzLvmqsuslJa7JKIV11LYdL0lawEskGGVuFvljrDR4esuYrJETgynHzxo3JCEPRopLz+LQKlurjn2obZI3XQ8Dsoo/j2HBs3MOf5IQlxqh1LajMm6L7G7qbJGYTRifzT6klaOVkcnldbRmlWVrLPJish0pYBZvmvBW9SPdZ0Ia5X6YtP3K9E2p+pez1dHEb0A+Oxtrk2J3rMvsPC7qXuaSbH8MN2alydFyEpLi+yK3rxX1kJVCY5QRrjp214ubBjUBPGJ4EWmYcXJzc+nfD53/9wxeZWs54Wgi8qY1OUoFeUD/IvtMS2FD2XsqASCzhKjyB4Zytgi2k6z4m2dRMlII2VoSSz3s3EVTBkuayXHAyRs+yrZly321fVDNtQHw7nJIG37Re/D1/q/zyIMnMMOMW6bO+PJhhcKlLLSYLt1gh2JYOxwditUGW8xFjvmkkrY498ZqH2tWQJ7mMCCGUlBW2YP8h2Oyx8AokrLPmt8ndZ5tmdf8myTbyNdywy6Un5yZNzbI0xtT66ktLWf09vXc/URfX1+F3npUgReRhhG/mjOno4CmHdbaNHm0daoEciOoWZd+Nyy8Uotk3GyJXB9Z00rqTwfX1JSekNRwTiUcsS3pmCCIgfSoZbYXriBo+nk5u84lk1GRnmTHRIYqENya91Y/ssRb3ituOzAJyUXHWPoicerxmyXccRsb3vbK7y6u0H2PKvBK3mHCKc0tCwI0bYHIRJ0SFa3oJMnWsK0r0OoHtbDUQhVKWyaRPFvkfUk3Ca7iM43XYaHvUYpOdevQlCZhMv0152rFqlDqSiWq/CeU1VBKX9050w91P5maUybvjocqiS1KiS3buV9E+2yGU5Ink74m1b/IcVHaJ7OtCJVRoMtxB+Giu6bNuGD4Z039wxOYYcK3ZsxcR6D2hBAQaWFCMiqUWY8Qa9ApQoSskkFbVgz1SSsnIY0Otq+xXWyEVUY6vEGGRonVZ/qTExjlOCKLZUqGw5BmeU14LNkQhj1LVTyKeNnMjHEJdsMgLFZJ661h/rKjmYIcK0dFk2qwLW4pPX566+RPw2PA8ARmGHBKU8thxMGVMiub8laBDMexbMhqH/Q1bClCxLbkIsg2LWtuQXM/QnSQ1EtZetgmcSIxtiWXMOz+sNVX6GhmQVVIP4cwOeezOCYmSsV1ZpOYi6pvmuikJmybX3Eus7ki3Q/RF8kpSlEqdWc2YVCk+hE3svyZOfNvPalYLNYyJzwSeAIzDPjWjJnXIk7arZebWuHpdmb16MVqUvFbJhh2TpSH8pPqawrAdsICp12Cu7SSA2TVs7dZKav/lledy4uZc9jeKQ+KRQtNxBjGay61Y8fHWHbVztybO1y6RIrDLglWy7qI8+MvrGFQohMxrVtemnQmPGqGJzBDxDVtU5cQgjWA1rXApQAs9B7u19ctyWEfs4mLogx23vyc7P3Wh986SqHuo9Uj0vqH9Dxi0weWLnuMHO7B6ae5p2qTZGvQi1Y+gcmdGwquympPkD3df2brLBOU7faQnX6YbJtGCyZHSr0byWoyPjx5yvXucHtUhjdTDwFXlkqldVNm/ARJGoY8KD2D9Tm11RCs9L/SVqO0GMmazk5/N3QoK3WlWpCc7zhL7YjgaIwFCiQ7rZuTz0hOZn8dTkiWyiOTXM4JETDNpbcjzvGCybNImViCJKxA5idOx4dFwglCxhbGsMbOtVPZ2UUFj/RWAt//894e7xtTAzwHMwSc3tp2OcAL2BbZE3AelwLYp8R6DFEC1uV8WBMXIwEJu46yvKYKWVczYYUiGHWMxQElliK2uSKpx0jXJjsUhu3nS2Usla/FCGjRM5LohPTUU9Y1qUPSfI22jDnERbUTqtAE0tUNiOUp7rOz9R7iKi5SPWZ4S8HhqTGzPx9Xtbb9RfWZ4aHgCcwgcU3blCWnNpW+YKe3zNEXsENVICQNNwsd5WstbFJlfOuluYMznm85coLL4rAbyMP2/VyCmKMmoox+JfsMulXLUiT75XYMljjG1hgKai7VLSz6l6W0mX7HOh7pY2SpvXJUMuJwIQg++KvZ89bCo194AjMIRKLRhydN/T7Ak5M95Jgj3E+89PKCvUiQ0bfaNzOV380+bUjKCmYymi8JgTbskT5OsBcQZXMW6GPOLbRZzA1jdp+HRduVH9ZpXDwXifxaWnHr3FHTHUNR9PO5+l0iWP7AVmu20EYU5HSTjbMOEQIEt13TNrWj8sN4wBOYweH01smXM9ChzCW234aOoiNL2WkpKt0vvaglLa0gwgZsTmVBsJzlLyKR1VFL4cwq7aSIr7ZMuLBZGtaKVC0vWEppZdYVz6Y9DOEUZNN8TNbjDaKgms4QpYdAjgMbT2ZR1C0Z4eSwfj7rekdEUj1hI0wp41xCy0PDzdmE3eJWTyk2+wqR/aDK58SjEp459LAtIFqivrRmvdtKV1gfc9IuY9rVn2xTq7gmY4u2Voa29ZpwwnQlkBDNhEKTdKZf1Vd2GBSdDFz81i43YFPdVXzx2ZQLAVv5oKx+i8cy/YBh7JIxs/aRlTLcNCCuF53NRmdnnxXiOdVY5ynH5XWqrQCUJhs37yVI/Iu7u3r2z1va2elTbFaAtyINEL+aNe9rILow75hSXgphoILTSq70oS0jla6xb5NjWKqw7VZbc4lLDcjqd5S9KVGy9tffWp4n90Cmj2y3m6N6qo4MRampM5kxT5+5qanQvPwXBw/e/1JYLg+sI40BLyINANdMmrKEArrScfSQOtE8baUFslWV9vXMjq7AXEUZhap7vSAizqKzuArKk62ybVZatqb/bHE9+X0aOMjuf27jFpTjC2mCZ/2GIdysEvLoPpJ4Vm2dE7cSMQeVxoOBlSe3lC4a7PPWOzyBGQBOaW7588SvndwvmQXL9Jp3TG9kz9G6Aktnw46ZVeo8RMuijUoQOo28g1ofwshXIsv+Zu7DnH2mvHs5jnNyP8PyI+6XPdGR4EJnwmGIzD6ALDO1uY4sCpXTL+YcZ0aBaydN8YX0K8ATmBpxTWvb4lOaW66IN2pdNJbyUi4cSzHJFqFwTMWp5M8sOA95d3aYjaqsA9sKUTe2kk3dJGLO+MjZ/XPNuqjA9khzvfrnmvJVg3k6KUkQtUGNZZuCg3RHJ7/fRtGsmDGHoBByx0f/ZlthzYRVv5p12I35N25seAJTI66dNGUNgFK8kS5Ea+JZOlBmkWpJZ7DW60qvD9aOYqQXqc3em43UaZ9VNLFKq03WgiOZ1kBaWcC2v4lg+wVLYokV7Hy9VeS1dVyMhxybjHmdpJ0+I+do/x5tbVL6KDJh6XaCqZQg6utMeQOpjjXtCXHKJYaKiDvvx3HAyRAcK3FVgJuumeTN1i68krcGXFNqaz+5VLoDhDZyLNJkkhVp4qCUJqStOGoh5mhYXX8NNhxGqifQ6faJc6/KXK63ZRpeNroE7k+5mW1IfanToD/Wi5hsK5pzc/387IqWmfuQpYiWpiaIWrEZy0+efoRcRZe8o0tVjeNiziOkdJ/cOIlMuwrdGw4e+NeKRxsQA1TBNyZ+dchhdzF4jdxnajyrSorQNZCtRcMyz6UDZdB2VbrSZFyJ6XcWuLs/hVmLorQJ1KInx7TMlhJamrSMKZmdcG4yVR8NHdNiHZFRnpIgnIA9MiT7LcdW358oNyhdPDarrN/6vYBsU7gU0CoMrBoXw1QpbwDLT8m9JuXcuPO43//39IqdbEB4EakfXN3attglLnC4Z4ZQHMq1XUmZaRrJy9Bo+6OgwmcgTxei9ttWaZOqxTWzMkxaOUFjcmKntCI1658j62Sb/juKbks5LSObs9HkGclEKr3tAzkWPOu9OMpi1+kw8wtpvh22+6GdIK1+2lQ8Paf9Pw857C54aHgC0w+ubp2SIS6V4MblVFARWrBNyLauwl1ozpXu3gpLBmnOSHFoAL4j+dyTMHcLp7RKl8fKGLZljJyaAjkCTUaOI+f6LMEgR1EDMaaZPjpjD0GghU4tl/90dxjSfbnXxRh4AlMF15Ta2gsFrLa/0I7i1MlxovcIL1Lj1K7NE+nlbElIiUVaaSrNPRjSeqHvR7IHgFTRwLFGOYnCbWsWyR5mDd+SC7MtO5bSk8NKEgdYOfeI80PRf9hchsUJSRKsjT5Wz+z+ctoPllHdipMKQxHKkCi4HNN1Sg4BsKset03VMriUdX7gRNg7ual4eXYoGhOewFTBh6ZMvRWgOfKjKBn1RNAPpMYw/T8Zhy6dWcmoNBJlMLMSUrK6X6k1pTSfQrrPiDsCqR6YDeujyEJaZJ5lPkt1D7XqOYejSMihyeNgit/rhekuu7iPrsiWaqmZGFZkg30O3KdhM96ynLchk1pdpK1ZaniCdNxNzCMlfbO4khx2j+U7ZMCy/Mn3wxn9tLISJl06pbmlZq633uGtSBVwVWvb4lObm+/QU4nVRJIseMWlYmUoSvzp2YgnqVpTl1BmuCkLktZNCgKyLCBwLE56bYi2ZU4pUiHJws0VumwkWX0mk+rNcotVxFKXm7QDIdK+mt7KIXEVTa7JymlPkeeUEIvUWqZNEn0yemWlWFJPqGvlZ+W3rBXM7rsrcrljnaGKQnUNtAPY9Ivenhcy920weCtSBTw9c+4/BoSLU9md3Akew1lIBFHkayBwWRiqfI+M9SPnftISkjmnn/71AdgThvh9WEYnh9gbhng9DNEDxkFm7BXMVdRMCxGa079tRJhFBbQFAQ4NAswOCmgOKgQOkNVb23IE95n7scZVGEMSOXo0sc45lhlPd6zz8tVIFohgs2ZJ2z86/rWX31V5pBsDnsDkYEv7nI7mIu3IfH/ziIAbOy3MqxUWtmM6MgdI6ExBYttejOpkyhIcNqoZEiZb5BEsw5m9HpbxaE8Pnug9iEd6umMiMlzoKBRwfFMzTmtqwWnNJUyRURZuSVjShFrJSAQ7YF1xK8wA2c7G2bHXToguYbKJtlXcroop25bu5PvnUImu1ij39HVNb/RIa09gcrB91tzvALza/TCpOZanR7BQjUtw10EOTUJmNuci48zPQnJjtrUJ6tjLYRm/7uvF9t5e/Lbci9/29cXcymiFAs8PCjipuRlHF5pwbLEJxzY1odmRoTLPnhkjtqRQ65kFLXGTCgZiWKoxjHIc1UtipTLTfo8kFN9kJ0bWfkH84J90vvZHjVx21td4cfChSVOWEPgS1zfVsA359EPMZbK8fSHzquQQE0v9wNqHnyBXilw0ZAKI0xZZ+fm6NImgK4ztLPfhf+/txPa+3mEbq8HgxbCMF7u7AHTpfe9rnYTVrW2YFxSUsjaHVMhsOqlqKMn3q/mOWJ0lVbWOfoYFgZKCWXIHEuyOUparduJQMGIWhISV3ShVXbNStGvmK3qL5y1vLp30RN++x0Z9oMcJPIFxcHJT0yUsnM3thP5UkTHRXHnO11BaVkh9UY0CUs9m5ahBbLaYbRHI+JuRMTNrBauKySF0cYj/7O3FTw924xd9PTGnMl4Tlnyn60D87/hiE84vteLMphLNLRQkDY3/aC2NlSFPmNXEm1JkSBMKIWwKsg2oKIBMuIDFJZnk40bitJgcZPqT0KplTc0XAmhYAuNFJAfbZ855EkRLAXZsF5U0r1mQ+nimHzjpvJ4gz329v1dhC1BuMiv5RX6ipwef2beHInFoouKCllb8+eQpmBskhk4t7oRJYLmuUunIJtkkX7laY2f83cIw9idCja2+T8TRBER5ERnmrlplveP413YdNdzjM1HgCYzAtulzLi8UsN4iJpWUoxL6nAo57CwrhaNQsBTJYtrnmYxydqntgwAeOngA3zywPxZD6gUrmltwYakVy5ta0ALKUbI7FwxQkWXgvPOsMss5z3mBlfoCoMx95y9+47UHB/rs9QBPYFKc3NQ8565pM34FRnuGvUgnm5uypNJk1vRGmknFOexkTmCSof/ppFUyFztKTvGt7WPGtr5e/LD7AB462I2eURinSZMnZ/Yd2L9/xO87MwjwjuYSLixNwlsKRbO8SVcSoIx+S9IMMiKOq2AHMqxgth2BPO26e0+G5ULT/dV9e468o7tr18iO0viD18GkOLmp+Vzm2EHKOJpBCfyaVa7wvTTx/Mwmmlg52GnVgax6yMLNTU3IOAI58etXYc4OLTITn8Gf3NtJj/QcHPaxmDx5Mo5ZuBBvfdvbMG/+fBw2fz4OOfRQTG5rq3jN7195BZ27d+OFHTvw0osv4rlnnsFzv/71sPXp9TDE/d0H4n9/PWUaLmxp1epdlRxD1LutqCtDDnHRuxUfKdPJZEs+io+K4V1kZgyjfFOKIG4hKpwL4O5hG5AJAs/BpHhqxuzvB0QXKY1rTmRcCocXJsluiFMy5xo7lFTRyiwEJBxhOHOP5GcPM+7t3o+/7zqAN5LKkINGqVTC4QsWoOOoo2JCon5PnTp1SO0q9PT04NXf/x6vvvJKTHR2Pv98/C8iQkNBM4DTmltwSWkSljW16FInmXGvIE5a7yWpHWUl6801ETKc1BiO7JzOA8NZkZ4XyZeC7l/0xq73DenBJyA8gUnx1MzZuwnUXnXy5UjlRuJJCVOaA4XJDsclK7Wj5X8u+J70OpYTlnQKx+19vVj35u4hO8JFxOSd55+Pc84/H83NzUNqazCIiMw/P/AAfr5585DFq9WlSfjgpDZMCYKUo1FsBQnCIEReQJ9ndmneRxN5JKQhFmCVWZw1Qc9T8tjzBlD5d7RQ27Xo9V2ThvSwExCewMQpGSaf+6FJU1IlXC2LN8+i5Goe8z6DgH0Pl+VxLCL6i0n4p4MH8KX9e7FvkMTlqGOOwVmrVuHk5csxc9YsFApjH4a2f98+/OfTT+PZX/8a2554AjsHydm8pVDENZPacEpTCwqZGZ33fpD3rlw2qLJG3d5ve9plZC/rnjcten3XZwb1kBMUnsDE1qPZtwYB1inBRXl8OnpbYVdQzlgVvf4z3InjWgt7Mlfg3cHoYeDT+zoxWF3LcYsW4b3vfz/evmjRoK4fTfzy6afxt3/zN4Pmaj7Y2oY/m9xmRFaz0smWZRPYwq44X8utKbEIyHk9ouAcySTEOmNxhY9I0PmV/bvn3tnd3T2oB5yA8AQmDmyc/SsAC+ONNO2lGxznIn/g7C+e9V1055vZTFL65nhi/LKvF7fu3ztg79tJkyfjrJUrsfzMM7HwuOPGBbdSKzp378Yvn3oKm3/6Uzz26KMDvv7EpmZcP2kKji4WBb/hmJTTcxlZslMTz1Jt4Si6JKyIQh2D/3dg34V3dO3/pwE/2ARFwxOYX82ataKPC5u0udj+9ijXf2btqWLnsBW6XZ0tQFubA7ISF2lDkwyuE7yNvPdDB7vxV/v2DPh5Vpx9Nq657rohjcl4QdjXh7+8/no8/9vfDui6NiJsaD8EbYHiJwyHaMaaTAowcS2Jt2KqGGRL2coStPpazrxbEQKScDsclj+/ePdrnxzSwEwgTJxP2wjhqtKU9Ukhe2ktSOeQCj7Ji1wm56/65e53OSBLphJZmNIbdzHj7q4D+PKBvTW79gdBgGOPPx6XfOADeO/7xr+horW1FaeccgpefvllhGFlSxgFAc5YuRIzZszA3r178cbrr9fUfg+AR3sPoqNQNJ7Aipcg2xmGHApD2p/Gqs2to70qpuOQIUhQin2Yd5wWuWUEbXd07b9zIOM1kdHQHMzVrZPPuLp18k+TLVdMz+hHFKTxQe/JjGSG77Zs0eY8wT8/2deDL+zfi+fLtQXfRoQlEoPe9T/+B966cOGgxmC0EYlrZ511Vuxr89xzz+HZZ5+t6bqIEP3m2Wfx9/fdh21bttR8vw+kVqYW+a5yFfI5vIw7H6zwbFepW0VZ7LxzZl6zePerDeET0+gpM8/Urm+k9HSqwCHJz5tS/pn8iJCTRohMcfEziPAikd5e20DJqAPTqMYne3vwoTd310xcIlz1kY9g3cc/PmGIS4SjjjoqJi4ROjo6UCzW5usZEdPoOW+8+WYsPvHEmu93T/cBfHDPGzio8p5rYRQu+8lGCBJlSkBSvS/mAYQLpMWiGpc7UbxOHwIhoKBhqkA2tIj0zanTPw/QETBxzRD5Qsi4pJCwKNkKQ1jfQD3hSMr3Tt0uN9KIdpXLuGHfnppN0CeefDI+/td/jROWLBnW8RhJRGN59NFH45hjjomJBVJuZubMmf2KShLReWetXIn29na89NJLsam7P7zBIZ4r9+L0ppbYSa+C4TqjB9N6GtL6GspzPmBkpeikMco9F8B0Zv7e4329r9b00BMYDc3BMLDM5LROuRNBZOwiyOaDpr5ykg8m63/MUiFTwSqhycn/3v8mao18fu/7349P3Hhj7L4/kTB37lwsXLgwY9GaPn06FixYMKC2otf0zgsuwF999rM4oqO2CiE/6+3Bn+x5IybiilMxydgNR2kbmtkuzUu2mi2FmSNW1gjJHZl5YAgRLRvQQ09QNCwH89SMQ28AcF666er6FBJhKaiQDr9ywkxtqUBlRZfmXLbUYIZuamqKxaFzL7ig9occJ5g9ezbe/va3VxSHIpFp9+7dGKh7yOS2NpzxB38QczHP/+Y3/Z4fEZcXymX8YXNLBVphLMyV9mW5VeNil27ozDNkrNQZnFxs3vu17v3fH9ADT0A0LIG5qnXyvWn29wwo70Oks+0r4Yky56eGgmRbpz+rjIi4PFmjj8ufXn11bIKeaIiIy7Jly6rqWiLiecQRR+DFF1/EQLNLNjc346RTTol//+fTT/d7/gthGYcViniL6g+zUwfbUtIopMTDStOp3rnDxoIylsW0iq51L8K0O7r23z6gh52AaEgCc1Vp0qknNzX/RTbuHjIsKNmWlgM9ObRQTpZ50jZLZsJ1FboAfHzfHvyiBuJyyKGHxpxL9KWeSIiGICIuxx9/fM2K3La2tlgfkymHWwPevmgRZsyciae2bOlXn7O9rxfHFouYGwSwCvLrvBzG8id9XmLIT4/bTem5R5k8p4A0Y0cfNw6/8Xhf35sDftgJhMbUwRAtT//mHYQuTibrres60WR9p1i2Q06bZMoRiYBJvq/rADb31pa95UPXXYclJ500uOccQyxYsCDmXEqlUs3XHHLIIbEieLA4+9xzcdsdd+TmrJF4g0Ncs7cTzyqLnapSaeVATn1f3DlSySubRT0Xqc/J+63bCibeix0gGpKD+XrbtGuIaLFVC8PWpWRIj5k7JKJtxbb4YpkPlnLQMk4x/9pzkL7cta9fJ7p58+fjr/7mbyaUCRqpZeiYY47BW9/6Vm0tGgja29vj8evs7BwUJzO5rQ0dRx6JzT/7Wb+czAvlMv6gqZmbZXG5PA8ocivHpcfsd66/RhWU+tquKLyAX/xBT/dDA37ICYTqSoI6xdbph+wGUXslEUYhT/GbSdcgCY4sHpbT9He7u3B7V/9m1eMWLYrFovbp02t+pvGASZMm4eSTT45FnaFi79692L59O954441BXb/18cfxt5/7HHp7q4uhkZh0e1s7Di8Uch10Y+SJu3a6Q1AOcdGn5iVSTa7fumT3q0sH8FgTDg1HYJ5qn7UiJNpkJw8yIJPTBTAxazUhzUWts9RLvd6bYYj37Hm9X1+XiLjcdPPNg3q2sURrayvOOOMMtLS0DGu7zz77bOzxOxjsfP55fOr66/slMu9qLuHTk6fEvytkVYY66FKQtDJMEq82iPXE3FvXxdkaTkS6sjTpNhAtrDITpCLOnJanELYgLZKcEbTu7j6An/ej1I3Eoo9+8pNVU1OON0RiUCQSnXjiibE1aLgxffr0+F93dze6uroGdG3EATY1N8eK32p4odyHaUGAYwtFZJUuqBALAued51q4+wVRsPOO7gNPDOiiCYSGIjBXlkqlk5ta7oUzZfJmhrUjZUOSfVlKYwcmITPJdoUhbtz/ZlW9y6TJk/HF//f/4sU0URBxLWeddRbmzJmTvy6HAVG7kydPxuGHHx6LYK+//nrNXr8R3nbssdi/f3/V/MDRe/mP3h6c2tyMQynQ5akgI6cF8pzpYG1rTxmjfmEmzuhyosPB/Du66zf4saEIzLKmplNPLjb9qXYCN8HMFudBbukQ5Ryh5GxSsQAJ0UlTdVvTS4lIvw/LuHpvJ/b0Ixp9+Prr46xzEwERYYm4lkWLFg3ISjRUTJ06NSY0Eb0/ePBgzT4zS046CTt/+1v890svVT3v9bCMdzaXKMmV6TiziCzgsEiJcLuTyVOTs5TrlPajMWkglDc4z2HwnU/09fWvnJuAaCwzNdPxxn2BTPZ/MW2MJ0QatCgCGhkmgxk7/hPkxCepwMYfHDwYczDVcNyiRXFU9ETAzJkzY67l6KOPHpN8vi0tLTjuuOPwh3/4h1i6dGlM7GrBn117bb/n/EdvL/69t4d1qbXEfp28d8DkctAKXbaTWUnioqIcWcfH6kjahIIxiw/YxAkqGyAaioP5etvUD4KwzA1JUxYBE3lPhgqhgjmpCtSX6oWwTF86sA9dVS6ORKMPrVsX58kdz5gxY0Zsej5uHGXImzJlCo488kgceuihmDZtWkzwyuVy/M9V4JdaW+Mo7M0/+1lVpe+/9x6kVc0taE9M7Mqx0j5JqNrs+AGn0JJy+JZzCTkev8yP/6DnYF2Wl20oK9KT7bOeImDkk9MS8EY5xPv27q5qNWqfPh1/+ZnPxKVCxiPa2triIMX58+fH+o+Jgkh02rt3b6x72bdvXyxOHThwIFYSb3r4YXyxHyvdsmITbm+bNrCb5jhUDeC79L2lna+9d2A3nBhoqMJrmrhYyhJxXJemyNJdofRlR+TOelYB2NDT3a9J+h3nnTcuiUuxWIytQocccshYd2VQiPqvrE8uItHqB9//Pp595pmK1z/e1xtHt8cF+LWhKBMqILN2CGujaSd0LtXpUTljVJgYyrdBoGF0ME+2T79Ib6TiLzt6E5utNnI2hKM/gxNdr1HNQG5GP/aFIf6pp3pkcERY3vGudw3Pww0REWFtbW2NAw5PP/10nHvuuROWuNSCj95wQ7/nbDjYbWLLONSRBHqXqR6pM2OKKWH+nx7UKpnkB9nZfPG2K0dTWz6KaBgRaUv7IXcBvAYOJysSM6u9TlVHWZpE2IfSU9mKfEym0ucO7MOP+ikz8tVvfAOHzJ49ko/cL4IgwLx58+K4ofb23MDyusV5q1bhJ5s2VTzeRoQHp8004dA6Qy+TMQlEuwMyoSP23LF9fe0CfnAYoRB88bLO1zcM/5OOLRpGRGLweTLKRPMnTDC8DCBTHpIwBqSX6eOpJJVmZoAuaP1cudwvcfnDd75z1IlLtDymTZsW61WmTp2q/42Ec9xEwJ133YVVp52GV3bl16OPxNu/PbAXH2ttU1r7JLdpypFQ6rZtWRnTHZwaFbVHuMoRI5UzljRFkShxasQ4jfRzjzYagsD8WWlSB4FnK1cG5fKkWVlR6FxztKTyx4tM9FBOL4L1Cchid/+1hgJp51144Ug9qoVJkybF1p/Zs2fH5uVGJSZ5WNDRgUsvvxxfuuWWiuc80HMQl5UmYS4pTYKKOYOdEDXZK2yOkm8BdEkCDbLmXTIfg9UA6q6cSUMQmAB8mMoypnPuysiRRMghkY8u/QLFpUviK39Z7sOOsIzQ+Nvp6zX9IeCR3h5Uc/865NBD8Zvnn4//DReam5v1v9bW1vhvRFyKxSJeeOGFYbtPvYGKxarvKsLfdR/AicWmitag6N23gnBEoYAFQcFUL1BKPjXrrAYMJ2PmY9hxZam1/c7urrqKS2oIAgPGMSaXYfrSM4EBRuUfnROmrMvP+nrokwf2DrngvMJLv/89brvttmFpy2PkEXExD9RYtvdthQK+OHkq5kUcjx01IIVzI2QJzjk9fwGAuiIwDWFFOqlY7BC5X7SJWab0TrX7MWMTEZfXOcQXuvbho/vfHDbi4lHf+HW5jAvf3I07ug8oy6KpvWZEK5LBTtZ8BI4c62cYbjQEgTmx0HR8YulRpkNRnEQWxEqFpb1hiI/t34tvH+xGbXnnPDwM/u5gF77d3QWthUlVxMZWwKmiz56PywrFt49lv0cCDUFgCDjMMi3qWJA0K5lllAa+2H0A2wZQAM3Dw8WdB7vwZmpqTGdcesQ2V8v5uKzYPLFq0dSAhiAwDMwR7k/G5AhLPoo3/zss4wc1ytweHpWwjxlf7u5yHDZhfhvHYD0fQ+bDxqq/I4WGIDBEkWwrzInqyyFUK+rnEwMsm+HhUQn/0NONg5YELlI7UHY+EuA5mImGP29pnaX8b1NFbvqqTQy9UsRFG68NIJmRh0d/eCUsK21L4vqgvmu585HrLj6j7gkMMWYaf6g02Y/MPWd/SNgrdT2GE11S46IThKvawu58pPGds2MQqHsCw8RzEjfulD3VJXDY5l6EydDDY7ggVXzMwnqUPx9LT7a1j22A2jCj7gkMYgVv+vUgEz+U417pyYvHsINIZ8cU9fmEC7gzH0PCaWPa4WFGAxAYak9lXtZyr9bqqyqOnJitJTvj4TEMkOyJqh4bpll5c+cjBQvGtMPDjLoPFWBwKteqiFgVWq+DFOMPS6jNhR4ewwiVLz7eyM4udz4SY2KV8uwHdc/BfLDUGhMY/SITvRqDKia28/AYPgjKQlCsi4hNcuYjB6lIXyeoew4mYG4BROi8ztPAyCQu9PAYdjBEYAqBnXww7nwEOsaws8OOuudgKEQJrFX4WqNGTogAzNfEw2MYQWbusax5kj8fCair1IJ1z8GERFNIJcdMy9QoR6cYogRFnG93LDvrUXfQhZHigmtpRjyuPB+ZqK4ITN1zMIaIsklHBpgKfJzmaKCc+jceHsOFJKkdm2x3FefjAOuljG80AIHhdpmbwy3IZXx4GVa1AA+PYUQ078KUQ2bBueTNx5OKxbqRLOrmQSqhkh6XOWs4JE9dKqJUKmHFihVYvXo1Ojo64ioEnZ2d2LlzJzZt2oQHHngg3vZwYKgIkciq6HqNy/m4DMXJT6Bvz1h1eThR9wRGQb/c9K8LT1qq4zvf+Q4uuuii3GNr1qyJCc2qVavivx4CBKODMXo/MhJS/nysFzSCiJT8P42SFi+TUccvdrgwZ84cbNy4sSJxUYi4mnvuuWfU+jVhIAmL3LaNSajX+Vj/HAxTvgKX7dISptRAbZ4x0YJauXJlLBZs3bq1br/cS5YsiZ+zFpx55pmxKNXdXb2qpYtI3IruE10XjeVArx/XqFQ4v8p8rCc0BAdj8m8kX440QMDQFJN7quY3HBGYu+66C9///vexY8eOWISox+qIswdYIC7ieAaKiLhEXNKjjz6KV199NR7To48+esDtjEuIvGbShsBV5uPjYV/dUNi6JzBM1KlNg2QKpplynzrzcpKfd5DamNWrV8cLo94wUIIxGAIj0dbWFotjX/nKV4bUzngBp/l2WZSw4H7m4xNhX93kbK17AmMVulcOvURQdZIy2vwam43YeNdqEokSK1asGM7ejznmzx9YFsehEhiFc845p2bRbHxDOewK506ZyS47H+uGe0EjEBhCGFMBHTqtlGmOQk36PtWCzZs3Y/r06TjyyCMtQlMfi8Jg1qyBJVlbsGDg2QY2bdoUSwinnWZSoRSLRdx4440Dbms8QlSuyHPCsucj4ZVR7+AIou4JDIfBPiS6Xh1wlkdGQr1zYIq2nTt34v7779fb55133lC6O+7Q0TGw2LuBEiSJiGj/8Ic/1NsRsR7o/ccldOrE7OTKmY/51fgnKOqewGxFX6dKUWjkXPlKrd/ZLHc1QC6KZcuWYfny5UPq83jCQBf4UAnCww8/bG2/5z3vGVJ7Y408Ba/KS5Q7H5mfGe0+jiTqnsA83ld+LflFwiyt4z4gBSMepJ1w//79+nfE2t98881D7vd4wUB1KgPV2bhwzf3nnHPOkNobc+gppjx1dUX8SvOxrvwd6p7AANwpvxEsysWyKHyV7BicBencc8+1tiMOZqgLbTxgMJzYUJ/bdeiL+lAqlYbU5piCpCFB8jCKuDjzkcOtY9PRkUEDEBilNBPEQ5QqMXkyB+/o5OpdogVx9tlnD7a/4waDITBD0cEgh8C0t7fjqquuGlKbYwuSzhDIzaMo5mMZxRdGuYMjivonMMwvIw0wSzlVtgpesdDvD0IFs3LlythRzEU96GEWL1484GsigjBQ5zyFk046KddZce3atZiwAcbKQqR4GF3DRM83OR97v1Xu9jqYiQTm4AUVvhqDZIopuBVlB4y77rord389WJPyCGctkObmgeDMM8/M3d/R0RErzycsMkyLrPxnzceX7qyrOIkGIDCPo28fM7p1XlSWupcErOPMBpYQJvriSqvJ+vXr9e/58+dPaC4m4hgWLhxcgvvBEqbVq1fr39u3b7eOnXHGGYNqczzAzTPEMnxAzEcGXh2rPo4U6p7AbOuLq9nHbKdNOmxTYeLCTbLQZ7+47LLL9O/Nmzfjiiuu0FaQaIFG3M1EZe0jwjlY5aqr9K4Fl19+uUWQr732WsuBURKfiQdVLsc1VjvncPjLMejciKLuCUyK1PQn+RYpGykT9sA4GKmQjAgMUq9UhYgDOP7444eh+6OPoViDBsP53HTTTfp3RKQfeeQR3H333XpfJCJN1GBSUgUFrLJbLh9N+GZfb13pX9AoBOaJsnhxIWd51gESFqRfXCke/dM//VP8VxEahYkamzRz5sxBXxsRgoFcH42RHMvPfOYz8d/bbrsNCQOaYCL6F5l4NxY1Y8VcE/ORGb8Zs46OEBqCwGwJw53K40knV1Z5YAZZfU1+cbu7u7UH6mOPPWadN1Fjk4Zqbj788MNrPldygrt27dK6rIiTefzxx/Wxq666auL5xEgLdTYriDUfAf7taHdvpNEQBIaZt2uTdGqX5rSeZ1o2eEBFY90vrhSLtm/fbnmjqgjr6KteSR8TLZroeC3/RgvHHHPMkK4fiKlaEmE3VMDlCC+99NIh9WvUIQOo49JIxqjgzMfuJ/v6PAczEUEc/FI7bat9abI7Q1ZqT/ntOoM9+OCD+nfE0l933XV6OyIKEQHavXt3RX3MlVdeGR/v79+OHTsG8thDwlA5mFpjklw/IpfA/PjHP7a2v/71r8cfhUpR29F9VTKn/v5FYu5ogNKcMGlOKcv1TszHzVs43DcqHRpFNASB+UZfdyeDt1rxIJwTGlAjhXHFHvcru2HDhsy+iYahuvzXQqAiju7WW2+19j3yyCPWdjSOE30smcPUDK1zm4HF5y3aH4a8foy7OSJoCAITg/luN0bAOaEmZzv3ixuJQ67eJcLVV189oct4jAaBiTg6OZbPPPNMJtgxGsPTTjttQhMZRUnS0rHpPCPLktnTUnxgTDs5QpiYThqDwDd6y3f/aXPwBQKKsceL9HTSCcdqY2HWrVunf2/bti33nK1bt8bJqM4++2y9WF988cXccyMRSrZZCaPp5DkaIlI03lJZHhGYSrj44otj/5poLCPOpxLxjvbLNqshekejAU6/aKr0Oev4FB3wuHXVRP4aVUH9pTGvgp+1tm0EYaWbeVdloop+rO/twd/19oxdJ8cBIuIwVH1PtHiXLl06bH2aqPhuaRIODxJBwZpzjJTcAE+G5S98uLvrY2PTw5FF44hIAMrFYLOqeUWJU4IJEEg3DqnD0hEDxWBd/SXqIhPdMOBQVe9e7ItD48jUZNvaV358DLs4omgoArO+q+unqtC9yu3uBoUspMIY93LssXbt2iG30d7ejne/+93D0p+JiouKRTRLIYFVSIphmqP5WA7oZ2PYzRFFQxEYQsF+kUkKmDSqOsn6fVQhwNKgcYnMQAqt9Yf169dPPMe4YUIbgMuaWuzAaRJJE5XLHWPT+p6D+cq5OkBDEZhv9HV3hoz1LPLz6iARNn69n28p4YgGFZU+9alPDVtbERczHNzQRMT7ik2YC50PhjXnonMOJZ52fSh/Zqz7OpJouFX0aKnUEQbFHeC0Io0qih8fVWU9gS3lPlx7sK5Sc/SLFStWWF7Jw4Hu7u7YzDxaFpvxgLcEAe5qaVU6PlI1jwIQh2Ax52jnGV37jhzr/o4kGoqDiXBad/dOZn4cTqUamZI5evlLggK+3FLCWYX6F5fmzJmDG264wSq/MlyIRKQtW7bEgYrDVZRtvCISi95VKOKzkWiUgNJk3rHBKBRm6ghhgIfHrrejg4bjYCI8Upxyc7GZPxF/RdKvCVR5YNapp/TY7GLmr/X20E/KfagnA/bChQtxySWX4BOf+MSo6UrWr1+P22+/fdw4Ib6ws3oS/4hotPUjLs8gwqmFIs4vFDCX5Deb0nhGcnyskv3f7Ou56Ju9vXXpYKfQkATmimLTiv9VbN6UeXoefOJvhRsOdmNLWK54/IQlS/CjjRsnbG6TesIPNmzA6osvrnrOXza3YGVhEP6oulIjZfcn+7qvPdg9d2tYHh+UdoTQcCJShLv6eh9hcBKhyKYoG8vJ4NYRlp6+KpFzjufvpcWmqvd+autWfPW224bvYTwGhT2dnfhcPx6/CynA6XluC2zlvxTzQp5EprA9xDwj7TW+od6JCxqVwEToKzW/T73w6F/ExhIzc+bLk4ZFslPThvQEsqbVCYUCFgfVh/Wrt98+Ak/kMRB8/Lrr8HSFMA+FT7W0oCkQuVsMRBA+ZZMkqioCHIdQp5H78RxTeRr4rnLv8Cu8xiEalsCs6uzsZNDDum5JQmwsB6iUq6FsGGQySZQdSnNAaTvXN7VgcpV7R1/Pd59//qjGFnkY/GTTJty7vnrw8oqggENhOJBUTysTdNvfFpkKQs0f5Tau6zumwQFEnU+Ww0dG9CHHCRqWwCAWlXrujX/IiULGVE2qgI0QnUzlCSJT+lMdTCbX7CDA6f3I7Q8/+CC+NwJWG4/+8cVbbun3nAuKxeQVy/wtKjuZQPqRie1DMt+LmUdkxCN9Ea5rBPEIjU5gngzLGwDsZp3hTuhWVGC9mzdGWZnYLqgfQ3tpMi4uFFFdGwN84ZZbYm7GY/Tw882bsfHh6tbho4iwOCjY3Eg0Pch8aciYHsG6iJ923rT0dA4HvOXM7v13j9DjjTs0NIHZGoZ7AtBHjReMA8PMcPXan2qP+UYdHQS4pNhUNf/Dc888g0v6sWJ4DC/++pOftBKJ5+GdKfep87joCZKj1Xd35VshNTEicF2bpV00NIGJcEb3/vXM9FxuvZqUrIQ6n4cEO9o/tpV8AC4pFGkhVR/in2zahDu+8pVhehqPSoiIyv+56aZ4vKshel8XpARGBCUS23+Vbi5bj4JzszsrB7vdX+9rDOWuQv27qdaAJSj8fm4h+GOoZEBEnCQHSmVqbV4UjEy6LWwIyq1KC+NFIrylEOChcl9EpCrikY0b8Y7zzsPcefNG9DkbGTf+5V/i/37uc1XPiUSjm5tLmOTo3JQRgKyKr0nSMp2cLp4JbLmWkdDRANwVAB/4SE9P3UZO56EhHe3y8O+l1t0AtROb7MzEenqwtggopZ1V70Qp99iZhsnxDb19fEe5t+pYn7x8OTY9+uhIPV5DoxaHugg3NjXjtDg0RCtrU0OziClSPy0bopwcstS9YV2i78hZB7tWjeiDjkM0vIiksCUsfwUQCrmEhyFZlg9k+TgkXzWTQTyNxRfOeCnHc1GxiBX9+Mb8YvPm2HQ9Xlzo6wUPPfgg1rzvff2ed0GhgJOCgnGsTBT4RkQix1pIiuCQKtmYptxlMoX9jKvDN8u9Deld6UWkFLOJdpxEhbUJSXGYDSK70ixb5mwrEDv97lnXERG9hQJsKFdXLj7/m9/Ezaw655xhfbZGxZ7OTlz4jnf0a6k7IQjw6eYWFIRNWubkJqTyMlkMawKWLKycJ9Yc2rm2t+fqYX68CQFPYFJsC8POy4vFXQQ6T3N22UKfFWVKSXN0nL5I/ttGhD1gPNtPYvEnn3gC5b6+WGSaqIXzxwN+/cwzOOess/DfFRKtK0wG8OFiE+ZEHKbj8Z8IREbLImoYGZByeyFHONJ4+Rvl3j+I5tdwPNdEgycwAuvLfU9c0dT0hwA6DMFQoraUk0xRAhLfNFIlCsh80HQ7BBwXFPBIWMb+Kn2IiMtPHnkETcUizpqgZWfHA/7oHe/As1WqFCj8ZVNzIhqZlyiYVbJ8LBOBKLEeEZExCUBf4IKJ+Btre3q+OywPNQHhCYyDxSi+NjfA+2HsAhbfS2AytqPETUIcJUZW+ZtsMpoJWBEU8R/lMvor4ffzxx7znMwg8fF16/DDB/p3N1ldKOLC2CQtQosgFLmwSgrHAhBbVKRy6H1qUer8SG/Pn+5ibkjuBZ7AZPFg2PfcmqbmIwEskZ+m1NkuDlfTHy1HLiLLW4YcVjrRGJeIcGRAeLhKSgd4TmZQ6O7ujnUu3/tu/wzDbCJ8qtiMAhmFi5CIybzzNJyRq9ETi4/Ryv2Qy6ffUi73z0bVMTyByQH39T64tFC8AEjSqqaaXdIfNsmcOAJ5RgmY4Wg4ntxHBAEeD8uorvZNOJmXXnwxziMzderU4XvIOsOezk5cvno1/u2hh/o99yQK8H+aWtBqKW2ldlYrz2ynFiCrXMvVyhFCwr2renq+NuQHm+DwfjAVsIZo8Zqmls1ESFK9GfqgfXgtzR9s+sLyeIVR3hKG+FxvT1WdjMIRHR34hx/8AMdVKKDfyLjjK1/Bpz72sZqi099GhJubmtEqTETqHbFSrpFR7+r36eYiY3GZtjwmRaeZ8NLa3p6Tt4XhrpF76okB7wdTAeuZtzEC5UBhYlHI+JBzhm0WNmsV60aQ0SxCqCcsDQJ8tbl6ageF/9q5M7aK/Fc/KR4bCRFBufKKK3D9hz9cc+qLDxeb0CrNyULFlpqDIEpIs3JnITcCTQXTk/Gl03mnisWveOKSwItIVXB3ufeZyynoIKKlKlpN62Kkt6eI0JeWSs1565Qg8aQkVfst+jMZhKOJ8NMwrBpOEOFgdze+fued8WJaeuKJDVtzCGlU9JVr1tSkzI0wnwj/p6kZR1FgCArlJiXUYJKvMK0G4J5EwqSYvOVH1vV0f/gV5v6k34aAF5H6wRVBMPvyYtMzRNTOxqXXMlOzK5WTVVMfaR4z6xwX9/X14b6w9jm5oKMjzu27oAFLtH71ttvijHS1YjIRvtLUjNkwFENGfZhd8Ycj/oCkco/5XjgcjE2c0mABYOfKg911XYZkoPAcTD/YyrwfoE1LiC4EqE14twiNHwtWmzPhj5rxydBzs29hQJgGwnMc4mAN/drT2RlbS/bv24e3LlyItra24X3wcYhXdu2K8+h+/rOfRRj2x+8lWEKEm4vNoua4VM5aCjTSynyx0/6Zp9g1FGdLGK75cVj+9SAerW7hOZgasbHQdgMVej+fbGV4EeFIQWSxL5UIi8XmGM+Lp8IQn+gbWHGUiMA88KMfxYrgekWtAYsSR4FwS3NzzMFkX1fmnejYRZau/4naTUi+5Ii9ai/ftKKnp66rNA4GXslbI9bxgdsZ+IXM+KFD2jjWq8Qqv7QELUwuNAXW+zSPzkbnqxxrTggIny82Y+EAyqc8+8wzOPbII2Mz7a9r8F6dSHjowQdx0fnn47L3vndA1703KOBLTc2JAj2UmVsyb0/tS+JWYfIywyovrF4ZwwS3plcHhXs9ccmH52AGgCUULLi12HQ/CMvVvly9imOrJojCW1WCmWQmiB4G/jks4x/LfXhtAH1sKZVwyvLlWH3ppbj4j/8Y0yZY/aW+vj785/bt+P73vof777tvwFaz6QD+vFDEHwRBmtfHOF1LAchYAc02YEzVyguGXLcEx2TN4M+v6+v7zLYw9Bncc+AJzCCwsanleRCMMo8dCV0nByGLQxE6QbhuGFDKYMcB+HkO8YnePuyvqB6ujtu/9jV88KqrBnXtaKO7uzsWgyKuZTCIuL4vFZszY5jkbiFrr1C8s4oPcK+LkdSQjo/p96N4UMKPV/UcPH9QnW0QeAIzCNxaKJy9pFD8Hhgpe+AsfksPzPn7RILwjL5GXgfCPjDuKffhhzUqNl0c0dGBd5x7Li5bsybmbsYTXti5E4/+9KdxIu4fPPDAoJKgTwXwP4MC3lUo5OhbpK7dIfLWTnb0K+JawLFnx6zNpnW9vVdsY/aOSVXgCcwgsbFU6kDIWxIi4/AmboVIOYnJsZHahMdcrzU1Jm/at8tl3NdPDFN/WNDRgf915ZW4/hOfGFI7Q8VPNm3CV26/HT/csGFI7UxGxLUUMV/4t1hjDaEKo3zFlhaD2GYpSYTPI0l0qHRsW1f1Hlw6pI43CDyBGQK+VCi8Z2lQuBdAScbfIlPsXKpkpNik1AO2aVtusxWBQHiGQzxQLuPfeXDcjMTSZctw4kknxXFO0b+jjjkGs2bNGnK7En19fXj9tdfwy+3b8avt2+O/D/34x/3maekPhwL4o6CACwuFuDwMuY4qOVvkWJ0Tx2yHvSGjxs9nZmjfeoQr7+7tfWJID9Ag8ARmiNhYLK1kCjc6xEKH1+qMIZZ1ySU0yHe5EIuAwRZB2sHMn+jrpVrimAaCk5cvj8Wos1asiInOQB35uru7Y6vWv2/ahKe2bYsLzL2ya3i95pcT4dPFppTwEuWY/Y13dVbGqejvmPCK+e9Kp+9ublq3av9+X/u3RngCMwy4tdC0dklAt1n0ZAjtGYIiPrI52M2MnzDj4XIZzw/pjpXRUiph9pw5cVhC9Ls9xyrV2dkZhzFEnEr0byQQAHg7Ec6mAKsKhYyHaDUv6bzzJIG3j2f3p9fso+amT687ePCr2/orrOSh4QnMMOHhpqZbC6C1nMOKONyKpSHIsvC6mLE2r/b7lhj4Vw7xd+W+miKzJxomA7ihUMSJaVpLSzfiwIoNk5ahzDjmk6RM4stoIyCgqeg5l0HAhwoME7Yy/+y8QiH60C4DkJ+CTn86o2kfyH1W1IuOOKAKzhfQUQlQ5xxFhHOCIH6hbzLw5kg/8AgjIiqLiHBJUMBHC0XMV1UZMvJkBpKgmOLzFRS8Fa/X4F13l8vXrg/L33il1vgEDw3PwQwzvlRoOndJQPczo53IJiAqlC5jqpabthdX1mnGPV+CjYJ5BxjbmfFYGGJbP4nGxwsionI6BXH80ElBgDbBZTCMI3/CnijjDgz90J63yllF2eEIeSl09TGp0rXdBzZdV+79s23Mvxn90agPeAIzAtgItIfF5kcBXphOfEMPRKiSNfjGdO16yVBAxGFSgCdr5k5Xl7bE6nuYT/g+gP4+LOMfxukH+FAA7y4UcR4RmitYky0LvnAtyoMa30igCjXtsZXvyKE3zv02nN3X6wuHDxGewIwQFhMt+FKh6Q4inAdVLVLXAGRHA2BMrJZnb46WQOsIdGIZ2yROshUnWG83GL9mxBHb/8WM55jx+iiMhUQk6CwA4aiAcAyAt1CAtxBVCYqroCvRYYk5SV3EvkqaFlJZpHKuJeDh6/p6L94W02aPocATmBHGvxabbgYgvNrSYmyC6FSC6/sLW0ywS5RKwqUIS5ogySqBq823ye/nAWznEI+GIX7NjN4RGocTU7HnLArieKHMs0rxp0KFIaoyDnrb5gKZUd2mJ8co5gTDcMO3morvu7vWFHkeVeEJzAhjMYLSYsKVf1IorCOgqlNJraZW+6LsV3hQ7QDoYsbvAbwOxqsM7AWwnxm7AfQgIj4Ux0S5zmeTATSB4r/TAEwhionIoenf2dX0q1XSyg3sOWoxt1XpBnPXFvAnry+XvaVoGOEJzCjhT4JgyeVB4VEAKs+ltSKiH6ExCrkF1FWOh8qvTGmU81dkxQvJiFj9r1ApeuR4K1dCPw3XcN88N/6MiMQq+DlP/+3ej+wq4y9QX2Hl2eh+oaYH8qgZPh/MKOGJMNxOhGsBdOrEDWxyioTCdzQura4sIswImUWeGTuriTGzsMh7IhxXk79p/mqGvKdq35yjm3Qaz+wGh6EhTGl+FOs4s6VLkm24Wo+kHUOurP5BNc0qhU7yWymsRf+l7pedvov2SP4F8MJWDv/ME5eRgedgRhj/HARvawkKV4GxBgHaI2rBqemCWCgaSSp6lYZGZIqFNHUr1QJTjq1aRzIF4iudXGtSSCjDihXWEP0UVmHLf0SYXDJKaKHvSX9zWkfKPGtK5cLU9U0bh912lbUnOmSPCYR2hViPn/bxd8Ip0j6mT2lGMcswpaS7E0z3lwPc+c7e3q3DOQcaGZ7ADDPeDhRPCoIzloAuOCEI3gHmtycqCulfkeMxCmSyUOeZkDJsgStouYmt2L3OjeZOTraJnRAkJK1x3ejdtp3bus8lxRorNSVswcVYyio9Q5XnqTpejpq7Epif2cLh17cD37s7DD1nMwR4AjNMuJTo6EtBlzUTXQqiY6yxzVsQyNmuoPDMLDg47ckVqH3NhCdaf/U5XDohuQLX3JtLQSo0Vs3m7hDcClDOPAMLNKr1eOZdiLuqcSds+1YYrt8a8t1PoXFrTA8WnsAMAy6jwsI1QfAoEU+TGQDcL3cyYY1pWi8x11xdgcuouBgrLCyLMLkLXTrqwZEd8jgYtqOndEY4bR2mVH4RJ7v3sv1TrOurEtpsX7PPkfOMmXsYZNvJG1N7zLf0lvv+5/mATzA1APhYpCFgMdGCb1HwiaVB8DUCphtSYMv5YsvWd6ZsgpQVsqvdbUVqGrJwriP3WGan2kVa+Zl7/xxGRB0mtnkfOLEOVlusldlEJJSt7j0zjEZyjJDRWDnX2vRGnUe1jAvymBzT8txCEKxbTJj9CvPDrwBDy/zVIPAczCDxb8DicqH4IwLP0fKIntwysiitCGhiBWxrSwWChBxJQytKrTbN152zAhNQQfOQ3pfZRDCkEpZSstrF5SAKGNoLOvs8QdrHlHkyl9kqIotHI1spZd1P7VKK4eS24gld67wIATCMWKo8TwmiVjIL834eAVY6YhWPkareN51T7ltV00RpcHgCM0BcApRODoLPLia6NvFpyf+WqultazCq8SkyTMBVqkp1jp3/rjKcBanMw9alZlWTiF+qBWTxJ3IvalKd2HQpX2FjPHHlY8lUUgw36CKPBzHX5d4j5x3lklLR1xidW0P+i49x+I0ahqth4QnMAPABBB2XFwobgbBDrXzblGoWBOnoOuGyLgPucheYrZSlQCc+ib+dWkKC0FkInoWsiD7W2p+0d2RZhDSdIrL4D1f34uwXQpr6nrPi0/J5JrOtojVNmbl8Yik5KzmuKmhRnkmCazRil0uUbU4kQ3xzrslXTQmODzqkcv095d6r7wZ8aEEOvA6mRrwfePuaQuGf44KBLLUWsIUAtUBVNhfWR6RaMfulZdj+p/ZhOfMTPxKL0Kh7xkuYxB3Ta9OTbBmAMqtQ/7ZoUdItTVnIyBZGuMroNEiIVkYTkqpRWNwj73nlOLLYRg5zkTdGlNOophHOocxfW/SyQGIcTZaHJYuSOllPPwUMb27QOoAnMP3gBKDtW0SfPLFQ+CYYcyQdcI0XcPkQsexYLEWbSagQi0e5ilX9xc4oRwU5qcjtAxmFDlwiUEHZahgYQ18slxtJG40iJd9l3+1rtn/2+DnjCGfYCDnEWVyQoRMV7s0WUUSm9+w8n2jxqCUBXbWYqG0u80+2AT6lZgovIvWDh4LCtxl4n+ar1QrVhhC2JQvY1laIjArsrAUp4XAFwcJxTc3J/SKP6QwOWdVBer+ATJ5fvZ2emYoagFFKm2xN7JI0u104hCbP/SZj+oE81zL/SOGRMtemO7QGxs0TlfaD4NipLcLLTm6Y7HizytnDsDKvizE226b3O+8Ny0u+BeypPrMaA56DqYDFoAX3BMEGgP4o2cNOiijWsjhbvDykFSlBkshOG5HIYXnEwrRIAokFlmV3DM9vcrxlFcJSKoBujyX7otYVZ5/RLO6sjkL2Qip1LUcgi0GSOidlk3HbTAhcQGzxGC4bNpgvozs2RFnGkYkosIiU0ADbc0C8L/s9of0E0JJthAdeAXoG3M06g+dgKuChINjCoCWVjosPrvn4xZNTKgVU5EzVtC9igbJlNXG309nO4vssZzq7xCPrqOq2B0dxKXTIQlKBTcjSu0dXhsb6ZFxbzH0zzI5QMltq6ErynDU2io1g5BIHaHaRBEepOSlIdUx2XMlkEk+U9/YgZZ7DtXC55nZmXn8uh1fkdrOB4KOpHXwOOONfgmCHIS7uVE7lEa0HZMFms9A8MtQENE6o1agMw06OZK7X940PkfNVV/cCwdGEMtvnmfZZyFXpdcxWnJFt1Jbm4PRcDjWvBiialPaFzXnWX0EUWTXPytk4O84kR9n8JXaewUJonkL1Q0eMsxwr1W2I/sRjQOzwfMkO1RVn3ES/zD1jSrPmx0HwoxOABXlvu1HgORiBHwEdhaDwKJhnZ5O1SrVAykEQ7E+j8+G0V1VWvDFqE3Y4EtchxVLU5LSVxwFk76XkulAbnHW3WSWR1Ds0+5/lrCoSSjZCAxtTOFlskeJgjOoiw7GYkIqsyOXyeJLnMmoxdrg8GGJmVchLX5XonXVNxmma8udB2lEmx+k4eZWb3hmGDeuU5zmYFLcA5wYUPMngOazLXbDJ0AL9ATTqxFBPRPUnZq1DiMQtCYhlHhbzFTSLmgX3IT/8Aikt0x9U/VVn+zprEZivdnyt6hsLToPj/Sy4LSODsOR8mJ0F6zASZq2p7aRNsvgbJGPEZCimOMJq/CSX5f4VfJt5VPGSbBGHU85CvR9O+5RSFmKtvJd3IbAIn7DHWj+t1OgblwTxPhhY+S9B8G+Nysl4DgbApUD75bFYhHaI3CIKBNuKoqeg+MK53zUJqwAYZGAMaWuGztFise/pB1alagOEjtG43+ni7Q4orzuuJUSzAERuTWz9jOqn/JbLSGuz7vWi1PvI0WmrL72sRMe226BQhCj5yfB1qp2A0gRbMHoucObZYT+/MZTBZNORehrdP0vrJNo2/IlSBpl2kOFr5N+G5GQanoO5BCh9gOjbzEhrorK2KaebOjsbM9y4GxKivllJ8jxOF5340rPmgeJvtTY7xwy8xciw3FQXseASUuLGhkUScLujTOW6a8k+ivUO6UFHjZScTwlxkZRCjpF5fKbMPrZ3KA1t2iYpMUnrMIRCVhIrIzSmYxWyDhZ1+wOH4LN5h6J/TGkydKNNUa4EbNpjRzcl2iT7fFiCsRzjtJ2V/0KNx8k0tJn6c8AZFxD9jIClyR71rRNqkxjOBINlXc3qEQi27iMTA4OMmtH9abVJkG3l6C0AxyyuqV+2XbdPzjPn8z3ZdlhbbFhqMPJPJvueGedCsp/Z5gmd/sntfhhwOW6ZZyRYKSUy9yZ9SqYJa5zAtkqr0vjF20e+k3ARiB57CnixeufrAw0tIv0LBf/JwLF69hh7JqezTyeahODGodWNluxt+HitaJQG0hz/e86umxw/EpsyWYuTM7ZY1y/HPphGEFVQOBs4+k7xl0TyTet+eTpmW3ebpRG5txfvwrqOOYfy6zFDSuVcMVP2R0eiq50OjVBskmVmhyRA4t459C4dG8DR9UK6M6Tb93C45F5gG+ocDSkiRWzqj4meZPCxsMUP11SrtBSw2HhwooiEsXQo/lq1o9QXarmwpaJ0v+Cs/yMiW75Kv6OmaSF/ZWSopAX7XmKxseo3a12kUD0js/zVeAgZjoVyk6XZmM1TIMc8LM9xZTAz7kLBal2nn0MES5oxA8zKNcpjc47sq1TlslCAm6Tq0swuHj25C1n9hnkNiemeiaXaSrxK3a/00AdAX18EtFWdqHWAhhSR7ibaQKDTxFJPQnXt+EUKUl1o4OQrIjGhNWOBdE05wkIeY28+9JT5hRwJB7YgY77kWjGrP/FEoIpfcoL98bXuSQRpmmaRddOwTlKc08c4l62w+xuNoDAEkyZwhv8iMZYZac8aBm2cSpx+yX42ESuVO/758Y7ucRLPGMCKfCC1TzWhdbzkOjHacaFytjBh3jtBPfcCj+QMW92goQjMCcDMbxH9I4BzkLIF7EbqWvTC/psrWguomS6JQaVr86QFSOJS+V7qWK6Qn9nOu28/qpZKj5Z/gMgiZFnRKI8e19h2zhiZEaW0gG7+xZWezXKR4YyOJUMlhbJZjz3EvDHePVR1XNmWPNPt5ZcCfVuBx15NKtfUHRpKRPq/oL9gJLWiAWHaVS+eYGQb+4vP6jgZHjo1JRhphN08U+zqJVi3LXY7whKBMmaLlOoI0y4qXA+gYkF3fYXz3JkzOMfqLWU90Zbti6KbZ7nd3/1y+wgxjtahzMq1xETNv5HN1aTyLitGjFL3HoJwRHJDCsi0Q6j+DEqIk7Z+10dPux2YcSoR0eeXxJ4S9YmG4GDeDhTvAf4KoL8AoZi1uDAyM9IWMNQcpITf1aQIguOXUEpVW9ln3HDlF9RwGpAcFGeDeqwcCSRUMSSDiXI0lFLw03qB7hC4l4i6wZgPqxP6Blk9NTncSmYc4TyTq4jmnzCwhYgW2oKHCJzKkRzZNcZBvjNX6GEnZN15S0qHr78jZD+v/ptPTbIMirif7WMEcT8YXsd+34tByxh48mmg7kqkNAQHsxR4D4huArgk1rvxKpM5E1KnCTOPmbWyMrUOWXYduY4BVyhSbbPyp9DzVs9x5kxb6Xw3rh2uoUayXFp9ZHSIRFY7um2jN3mwC5j7LuCK85hPA2Gn6RgZpQFRJmhBcG+iK1K+kE64zmAw8z3AR84HLmbmI0G0U3eU03R8qh+WI4mkX6zVT6Q0ySrPlk2qRZ9MU8l7ID2mqebMnhBOdCQLXxroz4R+dtbvkRlZ4uL0yeLmdPjH/D8BbbwsojV1hrrnYE4ADvsocB9A05MPiIlxztZWNowwweY9jLBtO3GQcIclW3VCZoURyQRw0uJq+6+R5kdkflwSLu65egl5LZDxx01DbnrLwD33AdfdDdzyZeCAuvJY4PF54FWMuFZ9boSzYcaI2KJiOQXZjCqVYPrzm/uA99wHPBZt3Ad0bgPu/j3wzKLkxGPl4DvZcnNMz6QkOYfNMMwcnIjt3BPFiAO6/Iq4b9obytxejZGaFjlJ0TOClZ5SLJNspPNxEbAQwANP11H6zZql4omIS4H2y4AfADizlmLtNZ2TJxlUWPjVjlWHJhNiYZEVu1xLe5H4w8wP3wt8LwQe+U4/NX1uAW5cDHyaEYmRlfsmyYlcvBX6tBfAVz8O3PI0ULFwWfSuALz7MuAaApa5foKVxjbv+MDGuz+SPZg2B39XBnbdA6z8DvDrYbzdmKFuCcwlQOkK4FcMdCCXeJDI3iad0PTqJqnscwlPXtXDzJfW1S9kZpXgX7hC2+69yU7ykvdcUWMBcMcB4JMXV1nUefhn4MoA+JqzwFnF+4A5y01Yd4aMaN5zD3DRfQM0xf4oeWd3gWglmC1Own1+Mw5WAThrbHLeQkWYRFjIyVmTHX+43BJyCunVBGs+Png+cP4AGxiXqFsC83+Bzy4CPq13VJiYuTDnZvV5Q0W/BCKHMPXfXh+A7SHw+HeADb3Av353CGz2ZcDiRcCaE4DVAObk31fqna0+9jLwxNPAD58CvnrfAAmcxAeABSGw8k+A5SGwDMBJrkZoGN6P3Ubt82T454bAU8BFNwAPjFT7o4W6JDD/AiwpA1usL5Zldan4CXbSjRALL9J+oYs0yvtkJiy57ErehM50MafPuxl4hIAH7gU2DGUhV8ODwOUhsI6AKtn9VIYCfqYXuPp/AJtGoi9IOKzVBFxJRCsUp1GhVy67aA2h2MifDmRMygERh8yOF52Io2bnPqJajNT5Wnys4HLyOsDAy+8C5tU6LuMVdUdgFgGlE4ArAbQPt9w8RugW/14E8DqA390HvDSanbgUsSn7GCTRwO3iUGfar99uBV785Shl1I9E4GLSp8NSLquU9quU/ht3GOh8JGDzvcCPR7BLHh4eHhMXDeEH4+HhMTbwBMbDw2PE4AmMh4fHiMETGA8PjxGDJzAeHh4jBk9gPDw8RgyewHh4eIwYPIHx8PAYMXgC4+HhMWLwBMbDw2PE4AmMh4fHiMETGA8PjxGDJzAeHh4jBk9gPDw8RgyewHh4eIwYPIHx8PAYMXgC4+HhMWLwBMbDw2PE4AmMh4fHiMETGA8PjxGDJzAe/z87dSwAAAAAMMjfehT7CiLYCAbYCAbYCAbYCAbYCAbYFAAA//+NRANZAj1ayAAAAABJRU5ErkJggg==;" vertex="1" parent="au0dWshhhtcf-c0XHziP-4">
          <mxGeometry x="613" width="160" height="160" as="geometry" />
        </mxCell>
        <mxCell id="au0dWshhhtcf-c0XHziP-3" value="&lt;div style=&quot;&quot;&gt;&lt;font color=&quot;#d7161b&quot; style=&quot;font-size: 89px;&quot; data-font-src=&quot;https://fonts.googleapis.com/css?family=Gochi+Hand&quot; face=&quot;Gochi Hand&quot;&gt;ba·bash·ka&lt;/font&gt;&lt;/div&gt;" style="text;html=1;align=center;verticalAlign=middle;whiteSpace=wrap;rounded=0;" vertex="1" parent="au0dWshhhtcf-c0XHziP-4">
          <mxGeometry x="458" y="146" width="470" height="124" as="geometry" />
        </mxCell>
      </root>
    </mxGraphModel>
  </diagram>
</mxfile>
